<?xml version="1.0" encoding="UTF-8"?>
<svg version="1.1" xmlns="http://www.w3.org/2000/svg" width="366" height="391">
<path d="M0 0 C1.85228744 1.62952869 3.7392206 3.22158076 5.67578125 4.75 C26.48410093 21.65675974 40.9494484 50.34933728 50.98828125 74.62890625 C51.61476563 76.11197266 51.61476563 76.11197266 52.25390625 77.625 C53.29331495 80.26889276 54.16558635 82.90934277 54.98828125 85.62890625 C55.18373535 86.26006348 55.37918945 86.8912207 55.58056641 87.54150391 C65.71636124 121.08998886 66.72974641 158.84239206 50.17431641 190.50292969 C44.88312647 199.98742576 38.43945519 208.64570825 30.9609375 216.515625 C28.88464501 218.67250199 28.88464501 218.67250199 26.859375 221.3984375 C26.24191406 222.13449219 25.62445313 222.87054688 24.98828125 223.62890625 C24.32828125 223.62890625 23.66828125 223.62890625 22.98828125 223.62890625 C22.32828125 224.94890625 21.66828125 226.26890625 20.98828125 227.62890625 C20.32828125 227.62890625 19.66828125 227.62890625 18.98828125 227.62890625 C18.32828125 228.94890625 17.66828125 230.26890625 16.98828125 231.62890625 C16.32828125 231.62890625 15.66828125 231.62890625 14.98828125 231.62890625 C14.65828125 232.61890625 14.32828125 233.60890625 13.98828125 234.62890625 C12.11210427 236.47390023 10.06090516 237.99726615 7.98828125 239.62890625 C10.19525731 239.13105351 12.25235102 238.52890606 14.37109375 237.7265625 C20.63431256 235.36224201 26.67953265 234.06514904 33.30078125 233.31640625 C34.05311035 233.22818604 34.80543945 233.13996582 35.58056641 233.04907227 C40.21454861 232.58546914 44.39209553 232.63985363 48.98828125 233.62890625 C51.05078125 235.56640625 51.05078125 235.56640625 51.98828125 238.62890625 C52.00301701 243.04963391 51.4152941 246.98820365 48.44921875 250.3984375 C46.37629581 252.01497617 44.27319689 253.32854776 41.98828125 254.62890625 C41.12332031 255.14195312 40.25835937 255.655 39.3671875 256.18359375 C33.43576787 259.56576495 27.37143886 262.23249896 20.98828125 264.62890625 C20.23184326 264.95221924 19.47540527 265.27553223 18.69604492 265.60864258 C15.91642331 266.65598175 13.29272596 267.26641987 10.375 267.8125 C9.29911621 268.01665527 8.22323242 268.22081055 7.11474609 268.43115234 C5.9798877 268.64078613 4.8450293 268.85041992 3.67578125 269.06640625 C1.32810689 269.50511143 -1.0195494 269.94391333 -3.3671875 270.3828125 C-4.50591309 270.59437988 -5.64463867 270.80594727 -6.81787109 271.02392578 C-9.55173132 271.54177517 -12.27654518 272.08675381 -15 272.65625 C-16.06963989 272.87486694 -16.06963989 272.87486694 -17.16088867 273.09790039 C-18.99018744 273.47379608 -20.8174593 273.85951951 -22.64453125 274.24609375 C-26.77644432 274.71584721 -29.92463166 274.4378089 -34.01171875 273.62890625 C-38.07387913 269.74336154 -40.65965266 265.75197526 -41.29492188 260.11669922 C-41.28986204 253.32766093 -40.31924013 247.28664202 -38.51171875 240.75390625 C-38.11122314 239.27168579 -38.11122314 239.27168579 -37.70263672 237.75952148 C-32.9226131 220.62814614 -26.77232696 200.36696186 -15.01171875 186.62890625 C-12.33566097 186.99801767 -11.22658151 187.39582451 -9.36767578 189.41235352 C-7.7967707 191.98027703 -7.73025079 192.9074619 -8.12890625 195.84375 C-8.24717773 196.72144043 -8.36544922 197.59913086 -8.48730469 198.50341797 C-9.71807355 205.83875457 -11.13887912 213.1343991 -12.57861328 220.4309082 C-13.00115014 222.58065302 -13.41689303 224.73162881 -13.83203125 226.8828125 C-14.08227051 228.15455322 -14.33250977 229.42629395 -14.59033203 230.73657227 C-14.72938965 231.69104248 -14.86844727 232.6455127 -15.01171875 233.62890625 C-14.68171875 233.95890625 -14.35171875 234.28890625 -14.01171875 234.62890625 C-13.356875 234.01144531 -12.70203125 233.39398438 -12.02734375 232.7578125 C-6.17252598 227.32474008 -0.23283736 222.39960197 6.26171875 217.734375 C9.08825735 215.55170408 11.50604485 213.19239425 13.98828125 210.62890625 C14.95701172 209.71238281 14.95701172 209.71238281 15.9453125 208.77734375 C31.88997727 193.537601 40.17742236 174.02320179 43.98828125 152.62890625 C39.75743222 154.31698533 39.75743222 154.31698533 36.98828125 157.62890625 C35.99828125 157.62890625 35.00828125 157.62890625 33.98828125 157.62890625 C33.32828125 158.28890625 32.66828125 158.94890625 31.98828125 159.62890625 C30.20001501 160.55242403 28.38328509 161.42161367 26.55078125 162.25390625 C25.09865234 162.92292969 25.09865234 162.92292969 23.6171875 163.60546875 C20.98828125 164.62890625 20.98828125 164.62890625 17.98828125 164.62890625 C17.98828125 165.28890625 17.98828125 165.94890625 17.98828125 166.62890625 C11.05220464 169.17213434 4.29473731 170.57806232 -3.01171875 171.62890625 C-3.01171875 172.28890625 -3.01171875 172.94890625 -3.01171875 173.62890625 C-5.10810567 173.62890625 -7.20464153 173.62594327 -9.30078125 173.59375 C-10.07164062 173.58472656 -10.8425 173.57570312 -11.63671875 173.56640625 C-12.80074219 173.54900391 -12.80074219 173.54900391 -13.98828125 173.53125 C-16.08197612 173.49587806 -16.08197612 173.49587806 -18.01171875 174.62890625 C-19.59928821 174.54039069 -21.18352454 174.38509372 -22.76171875 174.19140625 C-25.64057941 173.86463902 -28.35934524 173.62890625 -31.26171875 173.62890625 C-34.31271384 173.62890625 -37.01627918 173.21624734 -40.01171875 172.62890625 C-41.15447266 172.41041016 -41.15447266 172.41041016 -42.3203125 172.1875 C-43.12597656 172.02378906 -43.93164062 171.86007813 -44.76171875 171.69140625 C-45.5196875 171.53800781 -46.27765625 171.38460937 -47.05859375 171.2265625 C-49.01171875 170.62890625 -49.01171875 170.62890625 -51.01171875 168.62890625 C-53.58233186 167.98122832 -53.58233186 167.98122832 -56.01171875 167.62890625 C-56.01171875 166.96890625 -56.01171875 166.30890625 -56.01171875 165.62890625 C-56.69234375 165.36078125 -57.37296875 165.09265625 -58.07421875 164.81640625 C-61.40882684 163.46837319 -64.70915112 162.05354327 -68.01171875 160.62890625 C-68.01171875 159.96890625 -68.01171875 159.30890625 -68.01171875 158.62890625 C-68.81609375 158.25765625 -68.81609375 158.25765625 -69.63671875 157.87890625 C-74.4006015 155.37159954 -78.27534934 152.47516887 -82.01171875 148.62890625 C-83.21215344 147.55749024 -84.42159499 146.49613367 -85.63671875 145.44140625 C-86.32894531 144.838125 -87.02117187 144.23484375 -87.734375 143.61328125 C-89.32500766 142.22727543 -90.91619837 140.8419099 -92.5078125 139.45703125 C-97.20364283 135.31154938 -101.51276678 131.14393445 -105.44140625 126.2578125 C-107.17331717 124.46127804 -108.78141493 123.709073 -111.01171875 122.62890625 C-112.03669038 121.65451764 -113.03620827 120.6528102 -114.01171875 119.62890625 C-115.30395948 118.56221061 -116.61766371 117.52110184 -117.94921875 116.50390625 C-118.61824219 115.98570312 -119.28726563 115.4675 -119.9765625 114.93359375 C-122.02063844 113.62318806 -123.63973224 113.06403577 -126.01171875 112.62890625 C-126.01171875 111.96890625 -126.01171875 111.30890625 -126.01171875 110.62890625 C-126.77484375 110.48453125 -127.53796875 110.34015625 -128.32421875 110.19140625 C-131.01171875 109.62890625 -131.01171875 109.62890625 -134.01171875 108.62890625 C-135.34203125 108.65984375 -135.34203125 108.65984375 -136.69921875 108.69140625 C-139.5280253 108.63803254 -141.40804148 108.32098472 -144.07421875 107.56640625 C-147.40225117 106.6564471 -149.64649225 106.63913375 -153.01171875 107.62890625 C-153.67171875 107.62890625 -154.33171875 107.62890625 -155.01171875 107.62890625 C-157.02434348 108.64393128 -158.97871558 109.74335123 -160.94140625 110.8515625 C-163.40372524 111.77609359 -164.57415152 111.49790443 -167.01171875 110.62890625 C-167.01171875 111.28890625 -167.01171875 111.94890625 -167.01171875 112.62890625 C-168.09453125 112.99048828 -168.09453125 112.99048828 -169.19921875 113.359375 C-172.40043842 114.80436999 -174.44377518 116.55402121 -177.01171875 118.94140625 C-177.87796875 119.740625 -178.74421875 120.53984375 -179.63671875 121.36328125 C-181.46690664 123.10918417 -183.25545704 124.8724209 -185.01171875 126.69140625 C-187.01171875 128.62890625 -187.01171875 128.62890625 -189.01171875 128.62890625 C-189.27984375 129.26828125 -189.54796875 129.90765625 -189.82421875 130.56640625 C-191.01171875 132.62890625 -191.01171875 132.62890625 -194.01171875 133.62890625 C-194.01171875 134.28890625 -194.01171875 134.94890625 -194.01171875 135.62890625 C-202.03611771 143.89770315 -211.6421966 149.57030506 -223.01171875 151.62890625 C-223.85734375 151.83515625 -224.70296875 152.04140625 -225.57421875 152.25390625 C-228.1195533 152.64549618 -229.57228789 152.31999237 -232.01171875 151.62890625 C-222.29963843 174.73557918 -209.37679765 199.57483801 -189.44921875 215.62890625 C-188.64484375 216.28890625 -187.84046875 216.94890625 -187.01171875 217.62890625 C-187.01171875 218.28890625 -187.01171875 218.94890625 -187.01171875 219.62890625 C-186.42720947 219.89968994 -185.8427002 220.17047363 -185.24047852 220.44946289 C-183.02518933 221.62177772 -181.28011738 222.90594115 -179.3515625 224.5 C-164.58250612 236.4801374 -148.82649754 245.50678697 -131.75195312 253.77197266 C-130.1839064 254.54411688 -128.63542545 255.35569215 -127.08984375 256.171875 C-105.26087168 267.67216679 -81.09616651 273.94964211 -57.01171875 278.62890625 C-55.87109375 283.30078125 -55.87109375 283.30078125 -57.13671875 286.25390625 C-60.16734741 290.09270255 -62.67104065 291.41319938 -67.5078125 292.19140625 C-88.63103319 294.56485582 -109.12368417 291.82825652 -129.01171875 284.62890625 C-129.77178223 284.35449707 -130.5318457 284.08008789 -131.31494141 283.79736328 C-154.03517513 275.44861195 -174.4691993 264.20037823 -193.01171875 248.62890625 C-194.92764201 247.0863158 -196.84430246 245.54464049 -198.76171875 244.00390625 C-207.76727388 236.62632809 -207.76727388 236.62632809 -211.01171875 232.62890625 C-211.01171875 231.96890625 -211.01171875 231.30890625 -211.01171875 230.62890625 C-211.67171875 230.62890625 -212.33171875 230.62890625 -213.01171875 230.62890625 C-215.04889157 228.27737393 -216.94822013 225.91811833 -218.82421875 223.44140625 C-219.39736816 222.68617676 -219.97051758 221.93094727 -220.56103516 221.15283203 C-230.66641616 207.59172488 -239.44295566 193.22318467 -246.01171875 177.62890625 C-246.75615234 175.97568359 -246.75615234 175.97568359 -247.515625 174.2890625 C-255.84598488 154.95305745 -260.25871538 134.62534951 -261.01171875 113.62890625 C-261.0593335 112.44796387 -261.0593335 112.44796387 -261.10791016 111.24316406 C-262.19192417 80.42524428 -252.81570448 51.10947113 -231.77734375 28.1953125 C-230.47977907 26.9052918 -229.16569127 25.63157477 -227.83203125 24.37890625 C-225.95794018 22.57720496 -224.30801324 20.68141271 -222.63671875 18.69140625 C-217.12440449 12.28144448 -210.63082876 6.85823871 -204.01171875 1.62890625 C-205.22859375 1.89703125 -206.44546875 2.16515625 -207.69921875 2.44140625 C-208.52679688 2.621875 -209.354375 2.80234375 -210.20703125 2.98828125 C-212.12571212 3.42653148 -214.03725901 3.89691411 -215.94140625 4.39453125 C-222.14713615 5.97304609 -228.19829066 6.99278638 -234.57421875 7.44140625 C-235.59237671 7.52080444 -235.59237671 7.52080444 -236.63110352 7.60180664 C-240.28167376 7.80642167 -243.0376049 7.88923278 -246.01171875 5.62890625 C-248.13169965 2.58917979 -248.25655058 0.36811869 -247.69921875 -3.24609375 C-246.74152208 -7.37994901 -245.5875318 -9.24110749 -242.07421875 -11.62109375 C-240.40243994 -12.56612795 -238.71381576 -13.4818245 -237.01171875 -14.37109375 C-236.17125 -14.87253906 -235.33078125 -15.37398437 -234.46484375 -15.890625 C-219.02357152 -24.91326188 -202.41847571 -27.49178057 -185.01171875 -30.37109375 C-184.19912598 -30.50676758 -183.3865332 -30.64244141 -182.54931641 -30.78222656 C-165.26046384 -33.62039658 -165.26046384 -33.62039658 -160.19921875 -30.80859375 C-155.21530478 -25.25508962 -154.27167563 -19.81851133 -154.48828125 -12.50390625 C-155.98534099 2.41455474 -162.25526861 16.88832805 -168.07421875 30.56640625 C-168.56825195 31.73244385 -169.06228516 32.89848145 -169.57128906 34.09985352 C-172.80484673 41.48235886 -176.24627653 48.86346403 -182.01171875 54.62890625 C-184.51171875 54.44140625 -184.51171875 54.44140625 -187.01171875 53.62890625 C-189.51352126 49.87620248 -189.28764463 48.08970792 -189.01171875 43.62890625 C-188.49399673 41.04580382 -187.92624421 38.54666457 -187.26171875 36.00390625 C-184.75914716 25.95842039 -182.8765326 15.80893106 -181.01171875 5.62890625 C-181.71039063 6.3559375 -182.4090625 7.08296875 -183.12890625 7.83203125 C-185.93092565 10.63208156 -188.96891241 12.99721401 -192.13671875 15.37890625 C-193.2951039 16.26062535 -194.45264257 17.14345754 -195.609375 18.02734375 C-196.47006592 18.68428223 -196.47006592 18.68428223 -197.34814453 19.35449219 C-220.86946201 37.37346448 -237.52087602 58.40279602 -242.01171875 88.62890625 C-242.32734411 92.75796359 -242.39167476 96.86378322 -242.38671875 101.00390625 C-242.38800781 102.12845215 -242.38929688 103.25299805 -242.390625 104.41162109 C-242.26108099 114.81783242 -240.5555821 124.56701819 -238.01171875 134.62890625 C-226.84145116 137.12318277 -226.84145116 137.12318277 -216.07421875 134.31640625 C-208.39370039 129.25372223 -202.37118259 122.61581494 -197.203125 115.0625 C-196.80996094 114.58941406 -196.41679687 114.11632812 -196.01171875 113.62890625 C-195.35171875 113.62890625 -194.69171875 113.62890625 -194.01171875 113.62890625 C-193.78484375 113.05140625 -193.55796875 112.47390625 -193.32421875 111.87890625 C-191.67120436 109.0451673 -189.61529662 107.59746512 -187.01171875 105.62890625 C-186.23828125 104.82453125 -186.23828125 104.82453125 -185.44921875 104.00390625 C-184.01171875 102.62890625 -184.01171875 102.62890625 -182.07421875 101.69140625 C-179.88363828 100.71366346 -179.88363828 100.71366346 -178.23828125 98.69140625 C-175.66220196 96.30514333 -173.66905483 95.57641558 -170.32421875 94.56640625 C-169.26074219 94.23769531 -168.19726562 93.90898437 -167.1015625 93.5703125 C-165.57208984 93.10431641 -165.57208984 93.10431641 -164.01171875 92.62890625 C-162.46859218 92.09141273 -160.92675424 91.55019335 -159.38671875 91.00390625 C-152.86554012 88.84598896 -146.80464986 87.01311196 -140.01171875 88.62890625 C-138.34109375 88.84546875 -138.34109375 88.84546875 -136.63671875 89.06640625 C-121.22603954 91.45771854 -108.54160065 101.12128651 -97.3515625 111.48046875 C-95.24594808 113.41383759 -93.09115533 115.24785696 -90.88671875 117.06640625 C-89.93796875 117.91203125 -88.98921875 118.75765625 -88.01171875 119.62890625 C-88.01171875 120.28890625 -88.01171875 120.94890625 -88.01171875 121.62890625 C-87.4290625 121.87125 -86.84640625 122.11359375 -86.24609375 122.36328125 C-83.60682921 123.85824927 -82.18594222 125.54121327 -80.26171875 127.87890625 C-77.16076401 131.46527747 -74.09363068 134.29719093 -70.2265625 137.015625 C-66.49732691 139.73198179 -63.03633066 142.78077295 -59.52734375 145.7734375 C-57.21366641 147.47995417 -55.81398692 148.22951756 -53.01171875 148.62890625 C-53.01171875 149.28890625 -53.01171875 149.94890625 -53.01171875 150.62890625 C-50.02354183 151.69249465 -47.03715639 152.68025208 -44.01171875 153.62890625 C-43.1609375 153.91507813 -42.31015625 154.20125 -41.43359375 154.49609375 C-25.60326488 159.03758154 -6.32175068 158.72842297 8.98828125 152.62890625 C11.98828125 151.62890625 11.98828125 151.62890625 14.98828125 151.62890625 C15.31828125 150.96890625 15.64828125 150.30890625 15.98828125 149.62890625 C17.35558181 148.80852591 18.75775512 148.04560897 20.17578125 147.31640625 C23.49186963 145.52040862 26.39827921 143.6696021 29.2421875 141.1640625 C31.71465979 138.99027814 34.25811682 136.90747777 36.80078125 134.81640625 C37.75597656 134.02621094 38.71117187 133.23601562 39.6953125 132.421875 C41.98828125 130.62890625 41.98828125 130.62890625 42.98828125 130.62890625 C39.90367452 94.84746815 20.39461908 53.82491835 -6.94921875 30.00390625 C-7.58472656 29.47925781 -8.22023438 28.95460938 -8.875 28.4140625 C-12.47689513 25.40480093 -15.86638555 22.15865197 -19.30078125 18.9609375 C-22.07827071 16.57165622 -24.92538435 14.59882087 -28.01171875 12.62890625 C-29.26662109 11.81679687 -29.26662109 11.81679687 -30.546875 10.98828125 C-32.35433765 9.83731585 -34.16454917 8.69066269 -35.9765625 7.546875 C-37.99729648 6.26993757 -40.01041074 4.98086034 -42.015625 3.6796875 C-50.00700862 -1.41119393 -58.23749887 -5.45314813 -66.85473633 -9.35693359 C-69.16734783 -10.44426672 -71.42406849 -11.61825484 -73.69140625 -12.796875 C-79.75539332 -15.84599188 -86.05514469 -18.11636895 -92.44921875 -20.37109375 C-93.68478516 -20.80824707 -94.92035156 -21.24540039 -96.19335938 -21.69580078 C-112.54433979 -27.3965135 -129.01534028 -31.16524365 -146.01171875 -34.37109375 C-146.49854817 -40.69987627 -146.49854817 -40.69987627 -144.3203125 -43.703125 C-105.54036193 -71.72180333 -28.70165667 -25.41861737 0 0 Z " fill="#0B4A85" transform="translate(280.01171875,74.37109375)"/>
<path d="M0 0 C1.85228744 1.62952869 3.7392206 3.22158076 5.67578125 4.75 C26.48410093 21.65675974 40.9494484 50.34933728 50.98828125 74.62890625 C51.61476563 76.11197266 51.61476563 76.11197266 52.25390625 77.625 C53.29331495 80.26889276 54.16558635 82.90934277 54.98828125 85.62890625 C55.18373535 86.26006348 55.37918945 86.8912207 55.58056641 87.54150391 C65.71636124 121.08998886 66.72974641 158.84239206 50.17431641 190.50292969 C44.88312647 199.98742576 38.43945519 208.64570825 30.9609375 216.515625 C28.88464501 218.67250199 28.88464501 218.67250199 26.859375 221.3984375 C26.24191406 222.13449219 25.62445313 222.87054688 24.98828125 223.62890625 C24.32828125 223.62890625 23.66828125 223.62890625 22.98828125 223.62890625 C22.32828125 224.94890625 21.66828125 226.26890625 20.98828125 227.62890625 C20.32828125 227.62890625 19.66828125 227.62890625 18.98828125 227.62890625 C18.32828125 228.94890625 17.66828125 230.26890625 16.98828125 231.62890625 C16.32828125 231.62890625 15.66828125 231.62890625 14.98828125 231.62890625 C14.65828125 232.61890625 14.32828125 233.60890625 13.98828125 234.62890625 C12.11210427 236.47390023 10.06090516 237.99726615 7.98828125 239.62890625 C10.19525731 239.13105351 12.25235102 238.52890606 14.37109375 237.7265625 C20.63431256 235.36224201 26.67953265 234.06514904 33.30078125 233.31640625 C34.05311035 233.22818604 34.80543945 233.13996582 35.58056641 233.04907227 C40.21454861 232.58546914 44.39209553 232.63985363 48.98828125 233.62890625 C51.05078125 235.56640625 51.05078125 235.56640625 51.98828125 238.62890625 C52.00301701 243.04963391 51.4152941 246.98820365 48.44921875 250.3984375 C46.37629581 252.01497617 44.27319689 253.32854776 41.98828125 254.62890625 C40.69083984 255.39847656 40.69083984 255.39847656 39.3671875 256.18359375 C33.43576787 259.56576495 27.37143886 262.23249896 20.98828125 264.62890625 C20.23184326 264.95221924 19.47540527 265.27553223 18.69604492 265.60864258 C15.91642331 266.65598175 13.29272596 267.26641987 10.375 267.8125 C8.76117432 268.11873291 8.76117432 268.11873291 7.11474609 268.43115234 C5.9798877 268.64078613 4.8450293 268.85041992 3.67578125 269.06640625 C1.32810689 269.50511143 -1.0195494 269.94391333 -3.3671875 270.3828125 C-4.50591309 270.59437988 -5.64463867 270.80594727 -6.81787109 271.02392578 C-9.55173132 271.54177517 -12.27654518 272.08675381 -15 272.65625 C-16.06963989 272.87486694 -16.06963989 272.87486694 -17.16088867 273.09790039 C-18.99018744 273.47379608 -20.8174593 273.85951951 -22.64453125 274.24609375 C-26.77644432 274.71584721 -29.92463166 274.4378089 -34.01171875 273.62890625 C-38.07387913 269.74336154 -40.65965266 265.75197526 -41.29492188 260.11669922 C-41.28986204 253.32766093 -40.31924013 247.28664202 -38.51171875 240.75390625 C-38.11122314 239.27168579 -38.11122314 239.27168579 -37.70263672 237.75952148 C-32.9226131 220.62814614 -26.77232696 200.36696186 -15.01171875 186.62890625 C-12.33566097 186.99801767 -11.22658151 187.39582451 -9.36767578 189.41235352 C-7.7967707 191.98027703 -7.73025079 192.9074619 -8.12890625 195.84375 C-8.24717773 196.72144043 -8.36544922 197.59913086 -8.48730469 198.50341797 C-9.71807355 205.83875457 -11.13887912 213.1343991 -12.57861328 220.4309082 C-13.00115014 222.58065302 -13.41689303 224.73162881 -13.83203125 226.8828125 C-14.08227051 228.15455322 -14.33250977 229.42629395 -14.59033203 230.73657227 C-14.72938965 231.69104248 -14.86844727 232.6455127 -15.01171875 233.62890625 C-14.68171875 233.95890625 -14.35171875 234.28890625 -14.01171875 234.62890625 C-13.356875 234.01144531 -12.70203125 233.39398438 -12.02734375 232.7578125 C-6.17252598 227.32474008 -0.23283736 222.39960197 6.26171875 217.734375 C9.08825735 215.55170408 11.50604485 213.19239425 13.98828125 210.62890625 C14.95701172 209.71238281 14.95701172 209.71238281 15.9453125 208.77734375 C30.83032891 194.55040175 39.95528463 176.01876711 43.05126953 155.76928711 C43.57607947 152.38741877 44.04793688 150.53942281 45.98828125 147.62890625 C45.8245838 145.53115392 45.8245838 145.53115392 45.17578125 143.25390625 C44.28819221 139.38734648 43.84063721 135.77810112 43.67578125 131.81640625 C41.13646887 95.75817047 20.28448307 53.84643025 -7.01171875 29.94140625 C-7.63820313 29.42578125 -8.2646875 28.91015625 -8.91015625 28.37890625 C-12.50412079 25.38616254 -15.87863319 22.14724838 -19.30078125 18.9609375 C-22.07827071 16.57165622 -24.92538435 14.59882087 -28.01171875 12.62890625 C-28.84832031 12.0875 -29.68492187 11.54609375 -30.546875 10.98828125 C-32.35433765 9.83731585 -34.16454917 8.69066269 -35.9765625 7.546875 C-37.99729648 6.26993757 -40.01041074 4.98086034 -42.015625 3.6796875 C-50.00700862 -1.41119393 -58.23749887 -5.45314813 -66.85473633 -9.35693359 C-69.16734783 -10.44426672 -71.42406849 -11.61825484 -73.69140625 -12.796875 C-79.75539332 -15.84599188 -86.05514469 -18.11636895 -92.44921875 -20.37109375 C-93.68478516 -20.80824707 -94.92035156 -21.24540039 -96.19335938 -21.69580078 C-112.54433979 -27.3965135 -129.01534028 -31.16524365 -146.01171875 -34.37109375 C-146.49854817 -40.69987627 -146.49854817 -40.69987627 -144.3203125 -43.703125 C-105.54036193 -71.72180333 -28.70165667 -25.41861737 0 0 Z " fill="#0B4A84" transform="translate(280.01171875,74.37109375)"/>
<path d="M0 0 C2.60726083 2.23091514 5.14219595 4.52055976 7.66015625 6.8515625 C9.76577067 8.78493134 11.92056342 10.61895071 14.125 12.4375 C15.07375 13.283125 16.0225 14.12875 17 15 C17 15.66 17 16.32 17 17 C17.58265625 17.24234375 18.1653125 17.4846875 18.765625 17.734375 C21.40488954 19.22934302 22.82577653 20.91230702 24.75 23.25 C27.85095474 26.83637122 30.91808807 29.66828468 34.78515625 32.38671875 C38.51439184 35.10307554 41.97538809 38.1518667 45.484375 41.14453125 C47.79805234 42.85104792 49.19773183 43.60061131 52 44 C52 44.66 52 45.32 52 46 C54.98817692 47.0635884 57.97456236 48.05134583 61 49 C61.85078125 49.28617187 62.7015625 49.57234375 63.578125 49.8671875 C79.40845387 54.40867529 98.68996807 54.09951672 114 48 C117 47 117 47 120 47 C120.33 46.34 120.66 45.68 121 45 C122.36730056 44.17961966 123.76947387 43.41670272 125.1875 42.6875 C128.50270481 40.89198091 131.41005596 39.04431135 134.25 36.53515625 C136.73782919 34.35275252 139.30984798 32.27822977 141.875 30.1875 C142.84179688 29.39730469 143.80859375 28.60710937 144.8046875 27.79296875 C145.52914063 27.20128906 146.25359375 26.60960937 147 26 C148.95273962 28.92910944 149.75396363 31.08132291 150.6875 34.4375 C150.95949219 35.38496094 151.23148437 36.33242187 151.51171875 37.30859375 C152.00491017 40.02706485 151.90109873 41.43186863 151 44 C150.6596875 45.0209375 150.6596875 45.0209375 150.3125 46.0625 C148.44116623 48.82494508 145.97394419 49.60794102 143 51 C142.67 51.66 142.34 52.32 142 53 C141.01 53 140.02 53 139 53 C138.34 53.66 137.68 54.32 137 55 C135.21173376 55.92351778 133.39500384 56.79270742 131.5625 57.625 C130.11037109 58.29402344 130.11037109 58.29402344 128.62890625 58.9765625 C126 60 126 60 123 60 C123 60.66 123 61.32 123 62 C116.06392339 64.54322809 109.30645606 65.94915607 102 67 C102 67.66 102 68.32 102 69 C99.90361308 69 97.80707722 68.99703702 95.7109375 68.96484375 C94.55464844 68.95130859 94.55464844 68.95130859 93.375 68.9375 C92.59898437 68.92589844 91.82296875 68.91429687 91.0234375 68.90234375 C88.92974263 68.86697181 88.92974263 68.86697181 87 70 C85.41243054 69.91148444 83.82819421 69.75618747 82.25 69.5625 C79.37113934 69.23573277 76.65237351 69 73.75 69 C70.69900491 69 67.99543957 68.58734109 65 68 C63.85724609 67.78150391 63.85724609 67.78150391 62.69140625 67.55859375 C61.88574219 67.39488281 61.08007812 67.23117188 60.25 67.0625 C59.11304688 66.83240234 59.11304688 66.83240234 57.953125 66.59765625 C56 66 56 66 54 64 C51.42938689 63.35232207 51.42938689 63.35232207 49 63 C49 62.34 49 61.68 49 61 C48.319375 60.731875 47.63875 60.46375 46.9375 60.1875 C43.60289191 58.83946694 40.30256763 57.42463702 37 56 C37 55.34 37 54.68 37 54 C36.195625 53.62875 36.195625 53.62875 35.375 53.25 C30.61111725 50.74269329 26.73636941 47.84626262 23 44 C21.79956531 42.92858399 20.59012376 41.86722742 19.375 40.8125 C18.68277344 40.20921875 17.99054688 39.6059375 17.27734375 38.984375 C15.68671109 37.59836918 14.09552038 36.21300365 12.50390625 34.828125 C7.80807592 30.68264313 3.49895197 26.5150282 -0.4296875 21.62890625 C-2.16159842 19.83237179 -3.76969618 19.08016675 -6 18 C-7.02497163 17.02561139 -8.02448952 16.02390395 -9 15 C-10.29224073 13.93330436 -11.60594496 12.89219559 -12.9375 11.875 C-13.60652344 11.35679687 -14.27554688 10.83859375 -14.96484375 10.3046875 C-17.00891969 8.99428181 -18.62801349 8.43512952 -21 8 C-21 7.34 -21 6.68 -21 6 C-21.763125 5.855625 -22.52625 5.71125 -23.3125 5.5625 C-26 5 -26 5 -29 4 C-30.3303125 4.0309375 -30.3303125 4.0309375 -31.6875 4.0625 C-34.51630655 4.00912629 -36.39632273 3.69207847 -39.0625 2.9375 C-42.39053242 2.02754085 -44.6347735 2.0102275 -48 3 C-48.66 3 -49.32 3 -50 3 C-52.01262473 4.01502503 -53.96699683 5.11444498 -55.9296875 6.22265625 C-58.39200649 7.14718734 -59.56243277 6.86899818 -62 6 C-62 6.66 -62 7.32 -62 8 C-62.721875 8.24105469 -63.44375 8.48210937 -64.1875 8.73046875 C-67.38871967 10.17546374 -69.43205643 11.92511496 -72 14.3125 C-72.86625 15.11171875 -73.7325 15.9109375 -74.625 16.734375 C-76.45518789 18.48027792 -78.24373829 20.24351465 -80 22.0625 C-82 24 -82 24 -84 24 C-84.268125 24.639375 -84.53625 25.27875 -84.8125 25.9375 C-86 28 -86 28 -89 29 C-89 29.66 -89 30.32 -89 31 C-97.04918056 39.29433327 -106.62108691 44.88432269 -118 47 C-118.7425 47.2475 -119.485 47.495 -120.25 47.75 C-124.70892467 48.15535679 -128.2693254 47.57032012 -132 45 C-134.81908593 40.38399094 -137 35.45849507 -137 30 C-135.741875 30.144375 -134.48375 30.28875 -133.1875 30.4375 C-132.36378906 30.52 -131.54007813 30.6025 -130.69140625 30.6875 C-128.8991504 30.89559937 -127.11308918 31.16670277 -125.33984375 31.5 C-118.58243215 32.58896417 -114.45863843 31.52533067 -108.63671875 27.9375 C-102.02451062 23.07875151 -96.80934345 17.18288659 -92.19140625 10.43359375 C-91.60166016 9.72396484 -91.60166016 9.72396484 -91 9 C-90.34 9 -89.68 9 -89 9 C-88.773125 8.4225 -88.54625 7.845 -88.3125 7.25 C-86.65948561 4.41626105 -84.60357787 2.96855887 -82 1 C-81.484375 0.46375 -80.96875 -0.0725 -80.4375 -0.625 C-79 -2 -79 -2 -77.0625 -2.9375 C-74.87191953 -3.91524279 -74.87191953 -3.91524279 -73.2265625 -5.9375 C-70.65048321 -8.32376292 -68.65733608 -9.05249067 -65.3125 -10.0625 C-64.2503125 -10.39121094 -63.188125 -10.71992188 -62.09375 -11.05859375 C-60.56234375 -11.52458984 -60.56234375 -11.52458984 -59 -12 C-57.43590356 -12.53703944 -55.87321149 -13.07820143 -54.3125 -13.625 C-33.65593804 -20.39886356 -16.76454239 -12.646508 0 0 Z " fill="#6FA2D5" transform="translate(175,179)"/>
<path d="M0 0 C2.36113721 3.54170582 2.78117292 5.76934307 3 10 C1.17191774 14.73150703 -1.5203956 15.95496321 -6 18 C-6.33 18.66 -6.66 19.32 -7 20 C-7.99 20 -8.98 20 -10 20 C-10.66 20.66 -11.32 21.32 -12 22 C-13.78826624 22.92351778 -15.60499616 23.79270742 -17.4375 24.625 C-18.40558594 25.07101563 -19.37367188 25.51703125 -20.37109375 25.9765625 C-23 27 -23 27 -26 27 C-26 27.66 -26 28.32 -26 29 C-32.93607661 31.54322809 -39.69354394 32.94915607 -47 34 C-47 34.66 -47 35.32 -47 36 C-47.66 35.67 -48.32 35.34 -49 35 C-49.625 32.9375 -49.625 32.9375 -50 31 C-46.77484237 29.26337666 -43.48670834 28.1094072 -40 27 C-40.33 26.01 -40.66 25.02 -41 24 C-36.53896939 21.58360842 -32.10370233 19.63566419 -27.32080078 17.92773438 C-13.88079847 13.66507136 -13.88079847 13.66507136 -3.78125 4.8984375 C-3.5234375 4.27195313 -3.265625 3.64546875 -3 3 C-1.375 1.25 -1.375 1.25 0 0 Z " fill="#669DC9" transform="translate(324,212)"/>
<path d="M0 0 C5.22437601 0.53129248 10.3800885 1.21084496 15.5625 2.0625 C19.30434913 2.66207115 22.83636131 3.10465853 26.625 3 C30 3 30 3 33 5 C36.465 3.02 36.465 3.02 40 1 C41 4 41 4 40.625 6.375 C36.10430138 13.67766699 25.36819922 15.90795019 17.5 17.875 C12.74679838 18.0447572 8.95933912 17.81964151 5 15 C2.18858241 10.37518545 0 5.46312638 0 0 Z " fill="#72A2D1" transform="translate(38,209)"/>
<path d="M0 0 C2.18379446 3.2756917 2.54275639 4.20070529 2 8 C-4.98224694 18.11221971 -15.65461874 22.60640262 -26.8125 26.875 C-27.82248047 27.2771875 -28.83246094 27.679375 -29.87304688 28.09375 C-34.45203155 29.87094009 -38.03136002 31.25074442 -43 31 C-42.67 29.02 -42.34 27.04 -42 25 C-40.25307205 24.32532438 -38.50231475 23.66055844 -36.75 23 C-35.28820312 22.443125 -35.28820312 22.443125 -33.796875 21.875 C-31 21 -31 21 -27 21 C-26.67 20.34 -26.34 19.68 -26 19 C-24.63269944 18.17961966 -23.23052613 17.41670272 -21.8125 16.6875 C-18.49729519 14.89198091 -15.58994404 13.04431135 -12.75 10.53515625 C-10.26217081 8.35275252 -7.69015202 6.27822977 -5.125 4.1875 C-4.15820312 3.39730469 -3.19140625 2.60710937 -2.1953125 1.79296875 C-1.47085938 1.20128906 -0.74640625 0.60960937 0 0 Z " fill="#72A4DA" transform="translate(322,205)"/>
<path d="M0 0 C5.75 1.75 5.75 1.75 8 4 C10.70282088 5.80188059 12.99058007 6.85355431 16 8 C16.86625 8.391875 17.7325 8.78375 18.625 9.1875 C21.1017849 10.30289415 21.1017849 10.30289415 24 9 C24.66 9.33 25.32 9.66 26 10 C25.979375 10.78375 25.95875 11.5675 25.9375 12.375 C25.81315937 14.98114961 25.81315937 14.98114961 27 17 C26.34 17 25.68 17 25 17 C24.67 18.32 24.34 19.64 24 21 C21.22544609 19.9694514 18.82736901 18.89160379 16.3125 17.3125 C15.549375 16.879375 14.78625 16.44625 14 16 C13.34 16.33 12.68 16.66 12 17 C11.34 17.33 10.68 17.66 10 18 C7.875 17.0625 7.875 17.0625 6 16 C6 15.34 6 14.68 6 14 C4.824375 13.71125 3.64875 13.4225 2.4375 13.125 C-0.25680528 12.45616718 -2.89978312 11.73164363 -5.5625 10.9375 C-9.03747915 9.98977841 -12.42813623 9.43737107 -16 9 C-16 8.34 -16 7.68 -16 7 C-11.38 7 -6.76 7 -2 7 C-2.33 6.34 -2.66 5.68 -3 5 C-2.34 5 -1.68 5 -1 5 C-0.67 3.35 -0.34 1.7 0 0 Z " fill="#6A9DCB" transform="translate(147,167)"/>
<path d="M0 0 C0.66 0 1.32 0 2 0 C2.33 0.66 2.66 1.32 3 2 C5.34038186 3.13102526 5.34038186 3.13102526 8.0625 4.125 C8.98160156 4.47820312 9.90070312 4.83140625 10.84765625 5.1953125 C11.55792969 5.46085938 12.26820312 5.72640625 13 6 C13 6.33 13 6.66 13 7 C15.97 7.33 18.94 7.66 22 8 C18.23312136 9.88343932 16.97041037 10.22057835 13 10 C13 10.66 13 11.32 13 12 C14.32 12 15.64 12 17 12 C17.33 13.65 17.66 15.3 18 17 C13.94956093 18.276669 11.16618315 17.87087813 7.1953125 16.48828125 C2.73979529 13.46772599 1.38220672 8.00094895 0 3 C0 2.01 0 1.02 0 0 Z " fill="#6397C0" transform="translate(38,209)"/>
<path d="M0 0 C7.69733104 1.89410764 15.36174657 3.8799336 23 6 C22.67 6.99 22.34 7.98 22 9 C19.76914933 8.74340689 17.54032877 8.46912686 15.3125 8.1875 C13.45044922 7.96126953 13.45044922 7.96126953 11.55078125 7.73046875 C8.03290094 7.0067684 5.95898312 5.95876347 3 4 C0.30745009 3.29329272 0.30745009 3.29329272 -2 3 C-1.34 2.67 -0.68 2.34 0 2 C0 1.34 0 0.68 0 0 Z " fill="#6AABE3" transform="translate(226,239)"/>
<path d="M0 0 C0.7425 0.309375 1.485 0.61875 2.25 0.9375 C4.87867962 2.03185708 4.87867962 2.03185708 7.25 2.5 C7.8275 2.665 8.405 2.83 9 3 C9.33 3.66 9.66 4.32 10 5 C10.969375 5.474375 11.93875 5.94875 12.9375 6.4375 C16 8 16 8 18 11 C16.375 11.75 16.375 11.75 14 12 C11.97386717 10.70672372 9.97485205 9.3703055 8 8 C6.34259285 7.62331656 4.67654729 7.27942455 3 7 C1.04783565 5.04783565 0.15173355 3.46800047 -1 1 C-0.67 0.67 -0.34 0.34 0 0 Z " fill="#71A8DC" transform="translate(152,166)"/>
<path d="M0 0 C0.99 0.33 1.98 0.66 3 1 C-3.31249166 5.65130965 -10.26513972 8.63502466 -18 10 C-18.33 9.34 -18.66 8.68 -19 8 C-18.45996338 7.79318604 -17.91992676 7.58637207 -17.36352539 7.37329102 C-14.92878405 6.43911216 -12.49563181 5.50086253 -10.0625 4.5625 C-8.78729492 4.07426758 -8.78729492 4.07426758 -7.48632812 3.57617188 C-6.67744141 3.26357422 -5.86855469 2.95097656 -5.03515625 2.62890625 C-4.2862915 2.34088135 -3.53742676 2.05285645 -2.76586914 1.75610352 C-1.00970867 1.13360885 -1.00970867 1.13360885 0 0 Z " fill="#77AFDF" transform="translate(75,216)"/>
<path d="M0 0 C2.8203125 0.2421875 2.8203125 0.2421875 6.125 0.875 C7.22070312 1.07867187 8.31640625 1.28234375 9.4453125 1.4921875 C10.28835937 1.65976563 11.13140625 1.82734375 12 2 C12 2.66 12 3.32 12 4 C12.66 4.33 13.32 4.66 14 5 C7.80112515 5.37952295 3.5522888 4.8352113 -2 2 C-1.34 1.34 -0.68 0.68 0 0 Z " fill="#75A6DE" transform="translate(42,209)"/>
<path d="M0 0 C4.29 0 8.58 0 13 0 C13.33 0.99 13.66 1.98 14 3 C14.66 3.33 15.32 3.66 16 4 C10.72 3.34 5.44 2.68 0 2 C0 1.34 0 0.68 0 0 Z " fill="#649AC1" transform="translate(131,174)"/>
<path d="M0 0 C0.53625 0.391875 1.0725 0.78375 1.625 1.1875 C0.965 2.5075 0.305 3.8275 -0.375 5.1875 C-0.375 4.5275 -0.375 3.8675 -0.375 3.1875 C-1.365 3.6825 -1.365 3.6825 -2.375 4.1875 C-4.37460012 4.227492 -6.37547242 4.23096799 -8.375 4.1875 C-8.375 3.5275 -8.375 2.8675 -8.375 2.1875 C-2.95961538 -1.0125 -2.95961538 -1.0125 0 0 Z " fill="#6A9BCD" transform="translate(119.375,166.8125)"/>
<path d="M0 0 C0.66 0 1.32 0 2 0 C1.979375 0.78375 1.95875 1.5675 1.9375 2.375 C1.81315937 4.98114961 1.81315937 4.98114961 3 7 C-0.81164166 7 -2.65489648 6.62734766 -6 5 C-6.33 4.34 -6.66 3.68 -7 3 C-5.34385343 2.61781233 -3.67542976 2.28604898 -2 2 C-1.67 2.33 -1.34 2.66 -1 3 C-0.67 2.01 -0.34 1.02 0 0 Z " fill="#5F94C8" transform="translate(171,177)"/>
<path d="M0 0 C0.33 0.66 0.66 1.32 1 2 C-4.94 2.495 -4.94 2.495 -11 3 C-10.67 2.01 -10.34 1.02 -10 0 C-6.33291043 -0.94296589 -3.64653273 -1.11421833 0 0 Z " fill="#689DC9" transform="translate(135,164)"/>
<path d="M0 0 C1.75 0.125 1.75 0.125 4 1 C6.25 4.0625 6.25 4.0625 8 7 C7.01 7.33 6.02 7.66 5 8 C4.87625 7.071875 4.87625 7.071875 4.75 6.125 C4.18741541 3.81562433 4.18741541 3.81562433 1.9375 2.75 C1.298125 2.5025 0.65875 2.255 0 2 C0 1.34 0 0.68 0 0 Z " fill="#669BCA" transform="translate(196,217)"/>
<path d="M0 0 C1.53202706 0.25195908 3.05257128 0.57596777 4.5625 0.9375 C5.38878906 1.13214844 6.21507812 1.32679688 7.06640625 1.52734375 C8.02353516 1.76130859 8.02353516 1.76130859 9 2 C9 2.66 9 3.32 9 4 C2.47692308 4.36923077 2.47692308 4.36923077 0.0625 2.5 C-0.4634375 1.7575 -0.4634375 1.7575 -1 1 C-0.67 0.67 -0.34 0.34 0 0 Z " fill="#6EAEDC" transform="translate(134,162)"/>
<path d="M0 0 C2.31 0 4.62 0 7 0 C7 0.99 7 1.98 7 3 C4.69 3 2.38 3 0 3 C0 2.01 0 1.02 0 0 Z " fill="#6CACDA" transform="translate(252,232)"/>
<path d="M0 0 C1.32 0.33 2.64 0.66 4 1 C3.34 2.32 2.68 3.64 2 5 C0.68 4.67 -0.64 4.34 -2 4 C-1.34 2.68 -0.68 1.36 0 0 Z " fill="#61A8D5" transform="translate(204,223)"/>
<path d="" fill="#00FFFF" transform="translate(0,0)"/>
<path d="" fill="#0000FF" transform="translate(0,0)"/>
<path d="" fill="#00FFFF" transform="translate(0,0)"/>
</svg>
